<svg width="194" height="55" viewBox="0 0 194 55" fill="none" xmlns="http://www.w3.org/2000/svg">
<path d="M192.769 48.0055C192.769 50.886 190.301 53.2193 187.249 53.2193H6.60414C3.55329 53.2193 1.0769 50.886 1.0769 48.0055V6.42706C1.0769 3.54789 3.55329 1.20644 6.60414 1.20644H187.248C190.301 1.20644 192.768 3.54789 192.768 6.42706L192.769 48.0055Z" fill="black"/>
<path d="M186.667 1.26932C189.991 1.26932 192.696 3.81486 192.696 6.94315V47.4826C192.696 50.6109 189.991 53.1564 186.667 53.1564H7.17949C3.85538 53.1564 1.15051 50.6109 1.15051 47.4826V6.94315C1.15051 3.81486 3.85538 1.26932 7.17949 1.26932H186.667ZM186.667 0.186579H7.17949C3.23256 0.186579 0 3.22873 0 6.94315V47.4826C0 51.197 3.23256 54.2392 7.17949 54.2392H186.667C190.614 54.2392 193.846 51.197 193.846 47.4826V6.94315C193.846 3.22873 190.614 0.186579 186.667 0.186579Z" fill="#A6A6A6"/>
<path d="M43.2607 26.921C43.2191 22.5657 47.0501 20.4468 47.2253 20.3482C45.0556 17.3712 41.6927 16.9645 40.511 16.9321C37.6866 16.6523 34.9469 18.5226 33.5081 18.5226C32.0406 18.5226 29.8251 16.9591 27.4372 17.005C24.3643 17.0496 21.4897 18.7239 19.9131 21.3238C16.6593 26.625 19.086 34.4154 22.2033 38.7004C23.7627 40.799 25.5848 43.1422 27.9699 43.0597C30.3032 42.9692 31.1748 41.6598 33.9906 41.6598C36.7805 41.6598 37.599 43.0597 40.0314 43.007C42.5356 42.9692 44.1122 40.899 45.6171 38.7815C47.4191 36.3761 48.1428 34.0073 48.1715 33.8857C48.1126 33.8667 43.3081 32.1411 43.2607 26.921Z" fill="white"/>
<path d="M38.6659 14.1132C39.9208 12.6362 40.7795 10.6268 40.5412 8.58769C38.7247 8.66337 36.4532 9.77009 35.1451 11.2147C33.9877 12.4876 32.9539 14.574 33.2209 16.5361C35.2614 16.6794 37.3563 15.5672 38.6659 14.1132Z" fill="white"/>
<path d="M77.0287 42.7584H73.7678L71.9815 37.4761H65.7727L64.0712 42.7584H60.8964L67.0478 24.7751H70.8472L77.0287 42.7584ZM71.4431 35.2599L69.8277 30.5641C69.6568 30.0844 69.3366 28.9547 68.8642 27.1764H68.8067C68.6186 27.9412 68.3157 29.0709 67.8993 30.5641L66.3126 35.2599H71.4431Z" fill="white"/>
<path d="M92.848 36.1153C92.848 38.3207 92.2148 40.0639 90.9483 41.3436C89.8139 42.4827 88.4053 43.0516 86.7239 43.0516C84.9089 43.0516 83.6051 42.4381 82.8111 41.2111H82.7536V48.042H79.6923V34.06C79.6923 32.6735 79.6535 31.2506 79.5789 29.7912H82.2712L82.442 31.8465H82.4995C83.5204 30.2979 85.0697 29.525 87.1489 29.525C88.7743 29.525 90.1313 30.129 91.2168 31.3384C92.3052 32.5492 92.848 34.1411 92.848 36.1153ZM89.7292 36.2207C89.7292 34.9586 89.4277 33.9181 88.8217 33.0992C88.1598 32.2452 87.271 31.8182 86.1567 31.8182C85.4014 31.8182 84.7151 32.056 84.1019 32.5249C83.4874 32.9979 83.0853 33.6154 82.8972 34.3802C82.8024 34.737 82.7551 35.0289 82.7551 35.2586V37.4207C82.7551 38.3639 83.0623 39.1598 83.6769 39.8098C84.2915 40.4598 85.0898 40.7841 86.072 40.7841C87.225 40.7841 88.1224 40.3652 88.7643 39.5301C89.4076 38.6936 89.7292 37.591 89.7292 36.2207Z" fill="white"/>
<path d="M108.696 36.1153C108.696 38.3207 108.063 40.0639 106.795 41.3436C105.662 42.4827 104.253 43.0516 102.572 43.0516C100.757 43.0516 99.4531 42.4381 98.6605 41.2111H98.6031V48.042H95.5417V34.06C95.5417 32.6735 95.503 31.2506 95.4283 29.7912H98.1206L98.2915 31.8465H98.3489C99.3684 30.2979 100.918 29.525 102.998 29.525C104.622 29.525 105.979 30.129 107.068 31.3384C108.152 32.5492 108.696 34.1411 108.696 36.1153ZM105.577 36.2207C105.577 34.9586 105.274 33.9181 104.668 33.0992C104.006 32.2452 103.12 31.8182 102.005 31.8182C101.248 31.8182 100.563 32.056 99.9485 32.5249C99.3339 32.9979 98.9333 33.6154 98.7452 34.3802C98.6519 34.737 98.6031 35.0289 98.6031 35.2586V37.4207C98.6031 38.3639 98.9103 39.1598 99.522 39.8098C100.137 40.4585 100.935 40.7841 101.92 40.7841C103.073 40.7841 103.97 40.3652 104.612 39.5301C105.256 38.6936 105.577 37.591 105.577 36.2207Z" fill="white"/>
<path d="M126.415 37.7153C126.415 39.245 125.851 40.4895 124.718 41.4503C123.473 42.5003 121.74 43.0246 119.513 43.0246C117.456 43.0246 115.808 42.6516 114.56 41.9044L115.27 39.5031C116.614 40.2679 118.088 40.6517 119.695 40.6517C120.848 40.6517 121.745 40.4058 122.39 39.9166C123.032 39.4274 123.352 38.7707 123.352 37.9518C123.352 37.2221 123.088 36.6072 122.558 36.1086C122.031 35.6099 121.151 35.1464 119.922 34.7181C116.576 33.5438 114.905 31.8236 114.905 29.5615C114.905 28.0831 115.491 26.871 116.664 25.9278C117.833 24.9832 119.392 24.5116 121.342 24.5116C123.081 24.5116 124.525 24.7967 125.678 25.3656L124.913 27.7142C123.836 27.1629 122.618 26.8872 121.256 26.8872C120.179 26.8872 119.337 27.1372 118.734 27.6345C118.225 28.0791 117.969 28.6209 117.969 29.2628C117.969 29.9736 118.261 30.5614 118.846 31.0236C119.356 31.4506 120.282 31.9127 121.626 32.4114C123.27 33.0343 124.478 33.7627 125.255 34.5978C126.029 35.4302 126.415 36.4721 126.415 37.7153Z" fill="white"/>
<path d="M136.537 31.9533H133.162V38.249C133.162 39.8503 133.757 40.6503 134.949 40.6503C135.496 40.6503 135.949 40.6057 136.308 40.5165L136.393 42.7043C135.79 42.9165 134.996 43.0232 134.012 43.0232C132.803 43.0232 131.858 42.6759 131.176 41.9827C130.497 41.2881 130.155 40.1233 130.155 38.4869V31.9506H128.145V29.7885H130.155V27.4142L133.162 26.5602V29.7885H136.537V31.9533Z" fill="white"/>
<path d="M151.761 36.168C151.761 38.1612 151.155 39.7977 149.946 41.0774C148.679 42.3949 146.996 43.0516 144.898 43.0516C142.876 43.0516 141.266 42.4206 140.066 41.1584C138.866 39.8963 138.265 38.3031 138.265 36.3829C138.265 34.3735 138.883 32.7276 140.122 31.4479C141.358 30.1668 143.027 29.5263 145.125 29.5263C147.146 29.5263 148.773 30.1574 150.001 31.4209C151.176 32.6465 151.761 34.2289 151.761 36.168ZM148.585 36.2613C148.585 35.0654 148.314 34.0397 147.764 33.1843C147.122 32.1492 146.204 31.633 145.016 31.633C143.785 31.633 142.85 32.1506 142.208 33.1843C141.658 34.0411 141.387 35.0829 141.387 36.3153C141.387 37.5112 141.658 38.5369 142.208 39.3909C142.87 40.426 143.795 40.9422 144.988 40.9422C146.157 40.9422 147.075 40.4152 147.737 39.3639C148.301 38.4923 148.585 37.4558 148.585 36.2613Z" fill="white"/>
<path d="M161.712 32.3249C161.409 32.2722 161.086 32.2452 160.747 32.2452C159.67 32.2452 158.838 32.6276 158.252 33.3938C157.742 34.0694 157.486 34.9235 157.486 35.9545V42.7584H154.426L154.455 33.8749C154.455 32.3803 154.416 31.0195 154.34 29.7925H157.007L157.119 32.2735H157.203C157.527 31.4209 158.036 30.7344 158.734 30.2196C159.416 29.756 160.153 29.525 160.947 29.525C161.23 29.525 161.485 29.5439 161.712 29.5777V32.3249Z" fill="white"/>
<path d="M175.403 35.6613C175.403 36.1775 175.368 36.6126 175.291 36.968H166.107C166.143 38.249 166.587 39.2288 167.44 39.9044C168.214 40.5084 169.215 40.8111 170.444 40.8111C171.804 40.8111 173.044 40.6071 174.16 40.1976L174.64 42.1976C173.336 42.7327 171.796 42.9989 170.02 42.9989C167.884 42.9989 166.207 42.407 164.986 41.2246C163.768 40.0422 163.158 38.4544 163.158 36.4626C163.158 34.5073 163.725 32.8789 164.861 31.5803C166.05 30.1939 167.657 29.5006 169.679 29.5006C171.664 29.5006 173.168 30.1939 174.189 31.5803C174.997 32.6816 175.403 34.0438 175.403 35.6613ZM172.484 34.914C172.504 34.06 172.305 33.3222 171.89 32.6992C171.36 31.8979 170.546 31.4979 169.45 31.4979C168.449 31.4979 167.635 31.8884 167.014 32.6722C166.504 33.2951 166.201 34.0424 166.107 34.9127H172.484V34.914Z" fill="white"/>
<path d="M66.2186 19.6783C64.871 19.6783 63.83 19.2838 63.0956 18.4947C62.3612 17.7018 61.994 16.5807 61.994 15.1314C61.994 13.6861 62.3671 12.565 63.1132 11.7682C63.8632 10.9713 64.9178 10.5729 66.2772 10.5729C67.0546 10.5729 67.9647 10.6998 69.0077 10.9537V12.108C67.8202 11.6979 66.9042 11.4928 66.2596 11.4928C65.3182 11.4928 64.5897 11.8111 64.0741 12.4479C63.5585 13.0846 63.3007 13.983 63.3007 15.1432C63.3007 16.2486 63.576 17.1217 64.1268 17.7623C64.6776 18.399 65.4296 18.7174 66.3827 18.7174C67.203 18.7174 68.0819 18.4654 69.0194 17.9615V19.0162C68.1639 19.4576 67.2303 19.6783 66.2186 19.6783Z" fill="white"/>
<path d="M73.3378 19.608C72.4276 19.608 71.701 19.3072 71.1581 18.7057C70.6151 18.1002 70.3436 17.2916 70.3436 16.2799C70.3436 15.2564 70.6151 14.4479 71.1581 13.8541C71.705 13.2564 72.4452 12.9576 73.3788 12.9576C74.3124 12.9576 75.0507 13.2564 75.5936 13.8541C76.1405 14.4479 76.4139 15.2525 76.4139 16.2682C76.4139 17.3072 76.1405 18.1236 75.5936 18.7174C75.0468 19.3111 74.2948 19.608 73.3378 19.608ZM73.3553 18.7408C74.578 18.7408 75.1893 17.9166 75.1893 16.2682C75.1893 14.6393 74.5858 13.8248 73.3788 13.8248C72.1757 13.8248 71.5741 14.6432 71.5741 16.2799C71.5741 17.9205 72.1678 18.7408 73.3553 18.7408Z" fill="white"/>
<path d="M78.2186 19.4615V13.0982H79.3729V14.2936C79.9354 13.4029 80.6581 12.9576 81.5409 12.9576C82.3925 12.9576 82.9725 13.4029 83.2811 14.2936C83.828 13.399 84.5389 12.9518 85.4139 12.9518C85.9764 12.9518 86.412 13.1178 86.7206 13.4498C87.0292 13.7779 87.1835 14.2389 87.1835 14.8326V19.4615H86.0233V15.0143C86.0233 14.2877 85.7362 13.9244 85.162 13.9244C84.5643 13.9244 83.9374 14.3482 83.2811 15.1959V19.4615H82.121V15.0143C82.121 14.2838 81.828 13.9186 81.2421 13.9186C80.66 13.9186 80.037 14.3443 79.3729 15.1959V19.4615H78.2186Z" fill="white"/>
<path d="M89.4218 19.4615V13.0982H90.576V19.4615H89.4218ZM89.4218 11.9439V10.7896H90.576V11.9439H89.4218Z" fill="white"/>
<path d="M92.8905 19.4615V13.0982H94.0448V14.2936C94.6542 13.4029 95.4003 12.9576 96.2831 12.9576C96.8339 12.9576 97.2733 13.1334 97.6014 13.485C97.9296 13.8326 98.0936 14.3014 98.0936 14.8912V19.4615H96.9393V15.2662C96.9393 14.7936 96.869 14.4576 96.7284 14.2584C96.5917 14.0553 96.3632 13.9537 96.0428 13.9537C95.3358 13.9537 94.6698 14.4166 94.0448 15.3424V19.4615H92.8905Z" fill="white"/>
<path d="M100.367 21.5768L100.502 20.5748C101.17 20.8912 101.828 21.0494 102.476 21.0494C103.777 21.0494 104.428 20.36 104.428 18.9811V17.9791C104.002 18.8697 103.303 19.315 102.33 19.315C101.568 19.315 100.963 19.0377 100.514 18.483C100.064 17.9283 99.8397 17.1803 99.8397 16.2389C99.8397 15.2701 100.096 14.4811 100.607 13.8717C101.119 13.2623 101.781 12.9576 102.594 12.9576C103.305 12.9576 103.916 13.2467 104.428 13.8248V13.0982H105.588V17.7271C105.588 18.7232 105.535 19.4596 105.43 19.9361C105.328 20.4166 105.135 20.8092 104.849 21.1139C104.346 21.649 103.562 21.9166 102.5 21.9166C101.758 21.9166 101.047 21.8033 100.367 21.5768ZM104.428 17.2584V14.6158C103.92 14.0885 103.367 13.8248 102.769 13.8248C102.238 13.8248 101.822 14.0377 101.521 14.4635C101.221 14.8893 101.07 15.4732 101.07 16.2154C101.07 17.61 101.56 18.3072 102.541 18.3072C103.209 18.3072 103.838 17.9576 104.428 17.2584Z" fill="white"/>
<path d="M113.316 19.608C112.789 19.608 112.148 19.485 111.394 19.2389V18.1783C112.148 18.5533 112.805 18.7408 113.363 18.7408C113.695 18.7408 113.971 18.651 114.189 18.4713C114.408 18.2916 114.517 18.067 114.517 17.7975C114.517 17.4029 114.211 17.0768 113.598 16.8189L112.924 16.5318C111.928 16.1178 111.43 15.5221 111.43 14.7447C111.43 14.19 111.625 13.7545 112.016 13.4381C112.41 13.1178 112.949 12.9576 113.633 12.9576C113.988 12.9576 114.428 13.0064 114.951 13.1041L115.191 13.151V14.1119C114.547 13.9205 114.035 13.8248 113.656 13.8248C112.914 13.8248 112.543 14.0943 112.543 14.6334C112.543 14.9811 112.824 15.274 113.387 15.5123L113.943 15.7467C114.572 16.0123 115.017 16.2936 115.279 16.5904C115.541 16.8834 115.672 17.2506 115.672 17.692C115.672 18.2506 115.451 18.7096 115.01 19.0689C114.568 19.4283 114.004 19.608 113.316 19.608Z" fill="white"/>
<path d="M120.236 19.608C119.326 19.608 118.599 19.3072 118.057 18.7057C117.514 18.1002 117.242 17.2916 117.242 16.2799C117.242 15.2564 117.514 14.4479 118.057 13.8541C118.603 13.2564 119.344 12.9576 120.277 12.9576C121.211 12.9576 121.949 13.2564 122.492 13.8541C123.039 14.4479 123.312 15.2525 123.312 16.2682C123.312 17.3072 123.039 18.1236 122.492 18.7174C121.945 19.3111 121.193 19.608 120.236 19.608ZM120.254 18.7408C121.476 18.7408 122.088 17.9166 122.088 16.2682C122.088 14.6393 121.484 13.8248 120.277 13.8248C119.074 13.8248 118.473 14.6432 118.473 16.2799C118.473 17.9205 119.066 18.7408 120.254 18.7408Z" fill="white"/>
<path d="M127.607 19.608C126.697 19.608 125.971 19.3072 125.428 18.7057C124.885 18.1002 124.613 17.2916 124.613 16.2799C124.613 15.2564 124.885 14.4479 125.428 13.8541C125.974 13.2564 126.715 12.9576 127.648 12.9576C128.582 12.9576 129.32 13.2564 129.863 13.8541C130.41 14.4479 130.683 15.2525 130.683 16.2682C130.683 17.3072 130.41 18.1236 129.863 18.7174C129.316 19.3111 128.564 19.608 127.607 19.608ZM127.625 18.7408C128.848 18.7408 129.459 17.9166 129.459 16.2682C129.459 14.6393 128.855 13.8248 127.648 13.8248C126.445 13.8248 125.844 14.6432 125.844 16.2799C125.844 17.9205 126.437 18.7408 127.625 18.7408Z" fill="white"/>
<path d="M132.488 19.4615V13.0982H133.642V14.2936C134.252 13.4029 134.998 12.9576 135.881 12.9576C136.432 12.9576 136.871 13.1334 137.199 13.485C137.527 13.8326 137.691 14.3014 137.691 14.8912V19.4615H136.537V15.2662C136.537 14.7936 136.467 14.4576 136.326 14.2584C136.189 14.0553 135.961 13.9537 135.641 13.9537C134.933 13.9537 134.267 14.4166 133.642 15.3424V19.4615H132.488Z" fill="white"/>
<path d="M146.228 19.608C145.318 19.608 144.592 19.3072 144.049 18.7057C143.506 18.1002 143.234 17.2916 143.234 16.2799C143.234 15.2564 143.506 14.4479 144.049 13.8541C144.596 13.2564 145.336 12.9576 146.269 12.9576C147.203 12.9576 147.941 13.2564 148.484 13.8541C149.031 14.4479 149.305 15.2525 149.305 16.2682C149.305 17.3072 149.031 18.1236 148.484 18.7174C147.937 19.3111 147.185 19.608 146.228 19.608ZM146.246 18.7408C147.469 18.7408 148.08 17.9166 148.08 16.2682C148.08 14.6393 147.476 13.8248 146.269 13.8248C145.066 13.8248 144.465 14.6432 144.465 16.2799C144.465 17.9205 145.058 18.7408 146.246 18.7408Z" fill="white"/>
<path d="M151.109 19.4615V13.0982H152.264V14.2936C152.873 13.4029 153.619 12.9576 154.502 12.9576C155.053 12.9576 155.492 13.1334 155.82 13.485C156.148 13.8326 156.312 14.3014 156.312 14.8912V19.4615H155.158V15.2662C155.158 14.7936 155.088 14.4576 154.947 14.2584C154.81 14.0553 154.582 13.9537 154.262 13.9537C153.555 13.9537 152.889 14.4166 152.264 15.3424V19.4615H151.109Z" fill="white"/>
</svg>
