<svg width="194" height="55" viewBox="0 0 194 55" fill="none" xmlns="http://www.w3.org/2000/svg">
<path d="M186.41 54.2392H7.16962C3.22812 54.2392 0 51.197 0 47.4826V6.94318C0 3.22876 3.22812 0.186613 7.16962 0.186613H186.41C190.352 0.186613 193.58 3.22876 193.58 6.94318V47.4826C193.58 51.197 190.352 54.2392 186.41 54.2392Z" fill="black"/>
<path d="M186.41 1.26935C189.73 1.26935 192.431 3.81489 192.431 6.94318V47.4826C192.431 50.6109 189.73 53.1564 186.41 53.1564H7.16962C3.85008 53.1564 1.14893 50.6109 1.14893 47.4826V6.94318C1.14893 3.81489 3.85008 1.26935 7.16962 1.26935H186.41ZM186.41 0.186613H7.16962C3.22812 0.186613 0 3.22876 0 6.94318V47.4826C0 51.197 3.22812 54.2392 7.16962 54.2392H186.41C190.352 54.2392 193.58 51.197 193.58 47.4826V6.94318C193.58 3.22876 190.352 0.186613 186.41 0.186613Z" fill="#A6A6A6"/>
<path d="M97.7004 29.5811C94.3324 29.5811 91.5811 31.9966 91.5811 35.3292C91.5811 38.6349 94.3324 41.0757 97.7004 41.0757C101.075 41.0757 103.827 38.6349 103.827 35.3292C103.827 31.9966 101.075 29.5811 97.7004 29.5811ZM97.7004 38.8122C95.8524 38.8122 94.2625 37.3748 94.2625 35.3292C94.2625 33.2567 95.8524 31.8445 97.7004 31.8445C99.5483 31.8445 101.145 33.2567 101.145 35.3292C101.145 37.3748 99.5483 38.8122 97.7004 38.8122ZM84.3487 29.5811C80.9736 29.5811 78.2295 31.9966 78.2295 35.3292C78.2295 38.6349 80.9736 41.0757 84.3487 41.0757C87.722 41.0757 90.468 38.6349 90.468 35.3292C90.468 31.9966 87.722 29.5811 84.3487 29.5811ZM84.3487 38.8122C82.499 38.8122 80.9037 37.3748 80.9037 35.3292C80.9037 33.2567 82.499 31.8445 84.3487 31.8445C86.1967 31.8445 87.7866 33.2567 87.7866 35.3292C87.7866 37.3748 86.1967 38.8122 84.3487 38.8122ZM68.4609 31.3429V33.7854H74.65C74.469 35.1502 73.9851 36.1535 73.243 36.8528C72.3396 37.6974 70.9326 38.6349 68.4609 38.6349C64.652 38.6349 61.6694 35.738 61.6694 32.1486C61.6694 28.5592 64.652 25.6623 68.4609 25.6623C70.5203 25.6623 72.0188 26.4207 73.1247 27.4038L74.9512 25.6825C73.4043 24.2907 71.3466 23.2215 68.4609 23.2215C63.2378 23.2215 58.8482 27.2264 58.8482 32.1486C58.8482 37.0707 63.2378 41.0757 68.4609 41.0757C71.2839 41.0757 73.4043 40.2041 75.0713 38.569C76.7794 36.9593 77.3118 34.6958 77.3118 32.8682C77.3118 32.3006 77.2616 31.7787 77.172 31.3429H68.4609ZM133.428 33.2364C132.925 31.951 131.371 29.5811 128.205 29.5811C125.069 29.5811 122.457 31.9104 122.457 35.3292C122.457 38.5487 125.042 41.0757 128.506 41.0757C131.308 41.0757 132.925 39.4659 133.59 38.5285L131.51 37.2228C130.817 38.1788 129.872 38.8122 128.506 38.8122C127.15 38.8122 126.176 38.2261 125.553 37.0707L133.71 33.8901L133.428 33.2364ZM125.112 35.1502C125.042 32.934 126.938 31.7989 128.297 31.7989C129.361 31.7989 130.265 32.3006 130.566 33.0185L125.112 35.1502ZM118.481 40.726H121.163V23.8346H118.481V40.726ZM114.09 30.8615H114C113.398 30.1892 112.249 29.5811 110.794 29.5811C107.74 29.5811 104.947 32.108 104.947 35.3478C104.947 38.569 107.74 41.0757 110.794 41.0757C112.249 41.0757 113.398 40.4625 114 39.77H114.09V40.5943C114.09 42.7919 112.844 43.9726 110.835 43.9726C109.197 43.9726 108.181 42.8577 107.761 41.9203L105.429 42.8375C106.101 44.3611 107.881 46.236 110.835 46.236C113.979 46.236 116.632 44.4928 116.632 40.2514V29.9307H114.09V30.8615ZM111.023 38.8122C109.175 38.8122 107.628 37.3545 107.628 35.3478C107.628 33.3225 109.175 31.8445 111.023 31.8445C112.844 31.8445 114.28 33.3225 114.28 35.3478C114.28 37.3545 112.844 38.8122 111.023 38.8122ZM145.982 23.8346H139.569V40.726H142.243V34.3259H145.982C148.952 34.3259 151.865 32.3006 151.865 29.0794C151.865 25.8599 148.945 23.8346 145.982 23.8346ZM146.052 31.9763H142.243V26.1842H146.052C148.049 26.1842 149.189 27.7467 149.189 29.0794C149.189 30.3868 148.049 31.9763 146.052 31.9763ZM162.584 29.549C160.651 29.549 158.642 30.353 157.816 32.1351L160.189 33.0725C160.7 32.1351 161.639 31.831 162.632 31.831C164.019 31.831 165.426 32.6165 165.448 34.0033V34.1806C164.964 33.9171 163.928 33.5269 162.654 33.5269C160.098 33.5269 157.493 34.8529 157.493 37.3275C157.493 39.5909 159.587 41.0487 161.94 41.0487C163.74 41.0487 164.733 40.2835 165.356 39.3933H165.448V40.699H168.031V34.2195C168.031 31.2246 165.658 29.549 162.584 29.549ZM162.261 38.8055C161.386 38.8055 160.167 38.3967 160.167 37.3748C160.167 36.0674 161.687 35.5657 163.003 35.5657C164.181 35.5657 164.733 35.8106 165.448 36.1333C165.238 37.6974 163.81 38.8055 162.261 38.8055ZM177.441 29.9189L174.367 37.2413H174.275L171.098 29.9189H168.214L172.989 40.1517L170.264 45.8458H173.058L180.416 29.9189H177.441ZM153.335 40.726H156.016V23.8346H153.335V40.726Z" fill="white"/>
<path d="M64.1388 18.6535C62.8668 18.6535 61.8028 18.2255 60.9468 17.3695C60.0988 16.5135 59.6748 15.4455 59.6748 14.1655C59.6748 12.8855 60.0988 11.8215 60.9468 10.9735C61.7948 10.1095 62.8588 9.67753 64.1388 9.67753C65.4348 9.67753 66.4868 10.1455 67.2948 11.0815L66.5028 11.8495C65.8868 11.1055 65.0988 10.7335 64.1388 10.7335C63.1868 10.7335 62.3908 11.0535 61.7508 11.6935C61.1188 12.3255 60.8028 13.1495 60.8028 14.1655C60.8028 15.1815 61.1188 16.0055 61.7508 16.6375C62.3908 17.2775 63.1868 17.5975 64.1388 17.5975C65.1388 17.5975 66.0068 17.1775 66.7428 16.3375L67.5468 17.1175C67.1388 17.6055 66.6388 17.9855 66.0468 18.2575C65.4548 18.5215 64.8188 18.6535 64.1388 18.6535Z" fill="white"/>
<path d="M68.0746 15.5215C68.0746 14.6175 68.3586 13.8695 68.9266 13.2775C69.5026 12.6855 70.2266 12.3895 71.0986 12.3895C71.9706 12.3895 72.6906 12.6855 73.2586 13.2775C73.8346 13.8695 74.1226 14.6175 74.1226 15.5215C74.1226 16.4335 73.8346 17.1815 73.2586 17.7655C72.6906 18.3575 71.9706 18.6535 71.0986 18.6535C70.2266 18.6535 69.5026 18.3575 68.9266 17.7655C68.3586 17.1735 68.0746 16.4255 68.0746 15.5215ZM69.1786 15.5215C69.1786 16.1535 69.3626 16.6655 69.7306 17.0575C70.0986 17.4495 70.5546 17.6455 71.0986 17.6455C71.6426 17.6455 72.0986 17.4495 72.4666 17.0575C72.8346 16.6655 73.0186 16.1535 73.0186 15.5215C73.0186 14.8975 72.8346 14.3895 72.4666 13.9975C72.0906 13.5975 71.6346 13.3975 71.0986 13.3975C70.5626 13.3975 70.1066 13.5975 69.7306 13.9975C69.3626 14.3895 69.1786 14.8975 69.1786 15.5215Z" fill="white"/>
<path d="M76.1122 18.4615H75.0082V12.5815H76.0642V13.3975H76.1122C76.2802 13.1095 76.5362 12.8695 76.8802 12.6775C77.2322 12.4855 77.5802 12.3895 77.9242 12.3895C78.3562 12.3895 78.7362 12.4895 79.0642 12.6895C79.3922 12.8895 79.6322 13.1655 79.7842 13.5175C80.2722 12.7655 80.9482 12.3895 81.8122 12.3895C82.4922 12.3895 83.0162 12.5975 83.3842 13.0135C83.7522 13.4295 83.9362 14.0215 83.9362 14.7895V18.4615H82.8322V14.9575C82.8322 14.4055 82.7322 14.0095 82.5322 13.7695C82.3322 13.5215 81.9962 13.3975 81.5242 13.3975C81.1002 13.3975 80.7442 13.5775 80.4562 13.9375C80.1682 14.2975 80.0242 14.7215 80.0242 15.2095V18.4615H78.9202V14.9575C78.9202 14.4055 78.8202 14.0095 78.6202 13.7695C78.4202 13.5215 78.0842 13.3975 77.6122 13.3975C77.1882 13.3975 76.8322 13.5775 76.5442 13.9375C76.2562 14.2975 76.1122 14.7215 76.1122 15.2095V18.4615Z" fill="white"/>
<path d="M86.655 10.5535C86.655 10.7695 86.579 10.9535 86.427 11.1055C86.275 11.2575 86.091 11.3335 85.875 11.3335C85.659 11.3335 85.475 11.2575 85.323 11.1055C85.171 10.9535 85.095 10.7695 85.095 10.5535C85.095 10.3375 85.171 10.1535 85.323 10.0015C85.475 9.84953 85.659 9.77353 85.875 9.77353C86.091 9.77353 86.275 9.84953 86.427 10.0015C86.579 10.1535 86.655 10.3375 86.655 10.5535ZM86.427 12.5815V18.4615H85.323V12.5815H86.427Z" fill="white"/>
<path d="M87.8637 12.5815H88.9197V13.3975H88.9677C89.1357 13.1095 89.3917 12.8695 89.7357 12.6775C90.0877 12.4855 90.4517 12.3895 90.8277 12.3895C91.5477 12.3895 92.0997 12.5975 92.4837 13.0135C92.8757 13.4215 93.0717 14.0055 93.0717 14.7655V18.4615H91.9677V14.8375C91.9437 13.8775 91.4597 13.3975 90.5157 13.3975C90.0757 13.3975 89.7077 13.5775 89.4117 13.9375C89.1157 14.2895 88.9677 14.7135 88.9677 15.2095V18.4615H87.8637V12.5815Z" fill="white"/>
<path d="M96.949 17.6455C97.493 17.6455 97.937 17.4495 98.281 17.0575C98.641 16.6655 98.821 16.1535 98.821 15.5215C98.821 14.9055 98.641 14.3975 98.281 13.9975C97.929 13.5975 97.485 13.3975 96.949 13.3975C96.421 13.3975 95.977 13.5975 95.617 13.9975C95.257 14.3975 95.077 14.9055 95.077 15.5215C95.077 16.1455 95.257 16.6535 95.617 17.0455C95.977 17.4455 96.421 17.6455 96.949 17.6455ZM96.913 21.2455C96.585 21.2455 96.277 21.2015 95.989 21.1135C95.701 21.0335 95.437 20.9175 95.197 20.7655C94.965 20.6135 94.765 20.4335 94.597 20.2255C94.429 20.0175 94.301 19.7855 94.213 19.5295L95.257 19.0975C95.377 19.4415 95.585 19.7175 95.881 19.9255C96.177 20.1335 96.521 20.2375 96.913 20.2375C97.513 20.2375 97.981 20.0575 98.317 19.6975C98.653 19.3375 98.821 18.8415 98.821 18.2095V17.6455H98.773C98.565 17.9575 98.281 18.2055 97.921 18.3895C97.569 18.5655 97.185 18.6535 96.769 18.6535C96.001 18.6535 95.341 18.3535 94.789 17.7535C94.245 17.1375 93.973 16.3935 93.973 15.5215C93.973 14.6495 94.245 13.9095 94.789 13.3015C95.341 12.6935 96.001 12.3895 96.769 12.3895C97.185 12.3895 97.569 12.4815 97.921 12.6655C98.281 12.8415 98.565 13.0855 98.773 13.3975H98.821V12.5815H99.877V18.2095C99.877 19.1535 99.609 19.8935 99.073 20.4295C98.529 20.9735 97.809 21.2455 96.913 21.2455Z" fill="white"/>
<path d="M108.36 16.8295C108.36 17.3415 108.136 17.7735 107.688 18.1255C107.24 18.4775 106.676 18.6535 105.996 18.6535C105.404 18.6535 104.884 18.5015 104.436 18.1975C103.988 17.8855 103.668 17.4775 103.476 16.9735L104.46 16.5535C104.604 16.9055 104.812 17.1815 105.084 17.3815C105.364 17.5735 105.668 17.6695 105.996 17.6695C106.348 17.6695 106.64 17.5935 106.872 17.4415C107.112 17.2895 107.232 17.1095 107.232 16.9015C107.232 16.5255 106.944 16.2495 106.368 16.0735L105.36 15.8215C104.216 15.5335 103.644 14.9815 103.644 14.1655C103.644 13.6295 103.86 13.2015 104.292 12.8815C104.732 12.5535 105.292 12.3895 105.972 12.3895C106.492 12.3895 106.96 12.5135 107.376 12.7615C107.8 13.0095 108.096 13.3415 108.264 13.7575L107.28 14.1655C107.168 13.9175 106.984 13.7255 106.728 13.5895C106.48 13.4455 106.2 13.3735 105.888 13.3735C105.6 13.3735 105.34 13.4455 105.108 13.5895C104.884 13.7335 104.772 13.9095 104.772 14.1175C104.772 14.4535 105.088 14.6935 105.72 14.8375L106.608 15.0655C107.776 15.3535 108.36 15.9415 108.36 16.8295Z" fill="white"/>
<path d="M109.043 15.5215C109.043 14.6175 109.327 13.8695 109.895 13.2775C110.471 12.6855 111.195 12.3895 112.067 12.3895C112.939 12.3895 113.659 12.6855 114.227 13.2775C114.803 13.8695 115.091 14.6175 115.091 15.5215C115.091 16.4335 114.803 17.1815 114.227 17.7655C113.659 18.3575 112.939 18.6535 112.067 18.6535C111.195 18.6535 110.471 18.3575 109.895 17.7655C109.327 17.1735 109.043 16.4255 109.043 15.5215ZM110.147 15.5215C110.147 16.1535 110.331 16.6655 110.699 17.0575C111.067 17.4495 111.523 17.6455 112.067 17.6455C112.611 17.6455 113.067 17.4495 113.435 17.0575C113.803 16.6655 113.987 16.1535 113.987 15.5215C113.987 14.8975 113.803 14.3895 113.435 13.9975C113.059 13.5975 112.603 13.3975 112.067 13.3975C111.531 13.3975 111.075 13.5975 110.699 13.9975C110.331 14.3895 110.147 14.8975 110.147 15.5215Z" fill="white"/>
<path d="M115.758 15.5215C115.758 14.6175 116.042 13.8695 116.61 13.2775C117.186 12.6855 117.91 12.3895 118.782 12.3895C119.654 12.3895 120.374 12.6855 120.942 13.2775C121.518 13.8695 121.806 14.6175 121.806 15.5215C121.806 16.4335 121.518 17.1815 120.942 17.7655C120.374 18.3575 119.654 18.6535 118.782 18.6535C117.91 18.6535 117.186 18.3575 116.61 17.7655C116.042 17.1735 115.758 16.4255 115.758 15.5215ZM116.862 15.5215C116.862 16.1535 117.046 16.6655 117.414 17.0575C117.782 17.4495 118.238 17.6455 118.782 17.6455C119.326 17.6455 119.782 17.4495 120.15 17.0575C120.518 16.6655 120.702 16.1535 120.702 15.5215C120.702 14.8975 120.518 14.3895 120.15 13.9975C119.774 13.5975 119.318 13.3975 118.782 13.3975C118.246 13.3975 117.79 13.5975 117.414 13.9975C117.046 14.3895 116.862 14.8975 116.862 15.5215Z" fill="white"/>
<path d="M122.692 12.5815H123.748V13.3975H123.796C123.964 13.1095 124.22 12.8695 124.564 12.6775C124.916 12.4855 125.28 12.3895 125.656 12.3895C126.376 12.3895 126.928 12.5975 127.312 13.0135C127.704 13.4215 127.9 14.0055 127.9 14.7655V18.4615H126.796V14.8375C126.772 13.8775 126.288 13.3975 125.344 13.3975C124.904 13.3975 124.536 13.5775 124.24 13.9375C123.944 14.2895 123.796 14.7135 123.796 15.2095V18.4615H122.692V12.5815Z" fill="white"/>
<path d="M131.496 15.5215C131.496 14.6175 131.78 13.8695 132.348 13.2775C132.924 12.6855 133.648 12.3895 134.52 12.3895C135.392 12.3895 136.112 12.6855 136.68 13.2775C137.256 13.8695 137.544 14.6175 137.544 15.5215C137.544 16.4335 137.256 17.1815 136.68 17.7655C136.112 18.3575 135.392 18.6535 134.52 18.6535C133.648 18.6535 132.924 18.3575 132.348 17.7655C131.78 17.1735 131.496 16.4255 131.496 15.5215ZM132.6 15.5215C132.6 16.1535 132.784 16.6655 133.152 17.0575C133.52 17.4495 133.976 17.6455 134.52 17.6455C135.064 17.6455 135.52 17.4495 135.888 17.0575C136.256 16.6655 136.44 16.1535 136.44 15.5215C136.44 14.8975 136.256 14.3895 135.888 13.9975C135.512 13.5975 135.056 13.3975 134.52 13.3975C133.984 13.3975 133.528 13.5975 133.152 13.9975C132.784 14.3895 132.6 14.8975 132.6 15.5215Z" fill="white"/>
<path d="M138.43 12.5815H139.486V13.3975H139.534C139.702 13.1095 139.958 12.8695 140.302 12.6775C140.654 12.4855 141.018 12.3895 141.394 12.3895C142.114 12.3895 142.666 12.5975 143.05 13.0135C143.442 13.4215 143.638 14.0055 143.638 14.7655V18.4615H142.534V14.8375C142.51 13.8775 142.026 13.3975 141.082 13.3975C140.642 13.3975 140.274 13.5775 139.978 13.9375C139.682 14.2895 139.534 14.7135 139.534 15.2095V18.4615H138.43V12.5815Z" fill="white"/>
<path d="M14.963 10.3738C14.5418 10.7893 14.298 11.4363 14.298 12.2741V42.1584C14.298 42.9962 14.5418 43.6432 14.963 44.0587L15.067 44.1499L32.8368 27.4105V27.0152L15.067 10.2758L14.963 10.3738Z" fill="url(#paint0_linear_570_935)"/>
<path d="M38.7536 32.9931L32.8368 27.4105V27.0152L38.7607 21.4326L38.8934 21.5052L45.9088 25.267C47.9109 26.3345 47.9109 28.0912 45.9088 29.1655L38.8934 32.9205L38.7536 32.9931Z" fill="url(#paint1_linear_570_935)"/>
<path d="M38.8934 32.9205L32.8369 27.2129L14.963 44.0587C15.628 44.7175 16.7124 44.7969 17.9456 44.1381L38.8934 32.9205Z" fill="url(#paint2_linear_570_935)"/>
<path d="M38.8934 21.5053L17.9456 10.2877C16.7124 9.63565 15.628 9.71504 14.963 10.3738L32.8369 27.2129L38.8934 21.5053Z" fill="url(#paint3_linear_570_935)"/>
<defs>
<linearGradient id="paint0_linear_570_935" x1="31.2591" y1="42.4696" x2="8.62066" y2="18.4473" gradientUnits="userSpaceOnUse">
<stop stop-color="#00A0FF"/>
<stop offset="0.0066" stop-color="#00A1FF"/>
<stop offset="0.2601" stop-color="#00BEFF"/>
<stop offset="0.5122" stop-color="#00D2FF"/>
<stop offset="0.7604" stop-color="#00DFFF"/>
<stop offset="1" stop-color="#00E3FF"/>
</linearGradient>
<linearGradient id="paint1_linear_570_935" x1="48.5159" y1="27.211" x2="13.8194" y2="27.211" gradientUnits="userSpaceOnUse">
<stop stop-color="#FFE000"/>
<stop offset="0.4087" stop-color="#FFBD00"/>
<stop offset="0.7754" stop-color="#FFA500"/>
<stop offset="1" stop-color="#FF9C00"/>
</linearGradient>
<linearGradient id="paint2_linear_570_935" x1="35.6" y1="24.1101" x2="4.90046" y2="-8.46618" gradientUnits="userSpaceOnUse">
<stop stop-color="#FF3A44"/>
<stop offset="1" stop-color="#C31162"/>
</linearGradient>
<linearGradient id="paint3_linear_570_935" x1="10.4638" y1="54.0011" x2="24.1725" y2="39.4544" gradientUnits="userSpaceOnUse">
<stop stop-color="#32A071"/>
<stop offset="0.0685" stop-color="#2DA771"/>
<stop offset="0.4762" stop-color="#15CF74"/>
<stop offset="0.8009" stop-color="#06E775"/>
<stop offset="1" stop-color="#00F076"/>
</linearGradient>
</defs>
</svg>
