<svg width="44" height="44" viewBox="0 0 44 44" fill="none" xmlns="http://www.w3.org/2000/svg">
<circle cx="22" cy="22" r="22" fill="url(#paint0_linear_600_923)"/>
<g clip-path="url(#clip0_600_923)">
<path d="M10.4979 20.2176C9.60823 19.4567 8.9691 18.4423 8.665 17.3084C8.50118 16.5884 8.51252 15.8394 8.69805 15.1248C8.88359 14.4101 9.23785 13.7511 9.73077 13.2035C10.9556 11.7854 12.5205 10.7056 14.277 10.0665C16.5712 9.14511 19.0148 8.65725 21.4851 8.62747C24.4171 8.51157 27.3398 9.02692 30.0576 10.139C31.5696 10.725 32.9378 11.6326 34.0684 12.7997C34.582 13.2906 34.9834 13.8879 35.2448 14.5502C35.5061 15.2125 35.6212 15.924 35.5821 16.6355C35.4579 17.8355 34.9206 18.9542 34.0632 19.7983C33.9397 19.9329 33.8264 20.0778 33.6719 20.2642C33.758 19.6724 33.8096 19.0761 33.8264 18.4783C33.7905 17.7109 33.5994 16.9589 33.2648 16.2683C32.9302 15.5776 32.4591 14.9628 31.8802 14.4613C30.2629 12.9865 28.2671 11.9966 26.1189 11.6039C22.531 10.7452 18.765 11.0477 15.3582 12.4684C13.6945 13.1009 12.2591 14.223 11.2393 15.6882C10.8066 16.2993 10.5131 16.9988 10.3797 17.7369C10.2462 18.475 10.276 19.2336 10.467 19.9588C10.4825 20.0157 10.4825 20.0778 10.4979 20.2176Z" fill="white"/>
<path d="M37.7651 17.1169C38.1556 18.7592 37.9588 20.4873 37.209 21.9983C36.1227 24.2708 34.3001 25.7512 32.1016 26.8072C30.1776 27.6936 28.1215 28.255 26.0159 28.4689C23.6231 28.7605 21.2055 28.7831 18.8078 28.5362C15.662 28.21 12.6603 27.4439 10.0551 25.5338C8.08842 24.2048 6.70573 22.1659 6.19363 19.8397C5.97986 18.8737 5.99043 17.8711 6.22452 16.9098C6.22452 16.8529 6.26056 16.7908 6.28116 16.7338C6.30175 16.6769 6.3172 16.7028 6.35839 16.6613C6.50341 18.5281 7.32839 20.2755 8.67528 21.5686C9.78368 22.686 11.0852 23.5912 12.5162 24.2397C15.107 25.4308 17.9068 26.0941 20.754 26.1912C24.1734 26.4199 27.6009 25.8898 30.7938 24.6383C31.9505 24.1756 33.044 23.5668 34.0478 22.8265C35.9476 21.3461 37.3686 19.5809 37.7651 17.1169Z" fill="white"/>
<path d="M6.65698 24.3484C7.3469 25.1352 7.98533 25.9635 8.71644 26.6882C10.6747 28.5211 13.1067 29.7625 15.734 30.2703C18.9613 30.95 22.2759 31.1073 25.5525 30.7362C27.6605 30.5622 29.7281 30.0556 31.6794 29.235C33.8491 28.308 35.7218 26.796 37.0906 24.8661C37.1511 24.7784 37.222 24.6985 37.3017 24.6279C36.7406 26.2308 35.8652 27.7041 34.7274 28.9607C32.7565 31.0258 30.1835 32.4072 27.3803 32.9051C23.4128 33.7724 19.2957 33.664 15.3788 32.5894C13.4044 32.0845 11.5841 31.0982 10.079 29.7177C8.57398 28.3372 7.43047 26.6051 6.74966 24.6745C6.71159 24.568 6.68063 24.4591 6.65698 24.3484Z" fill="white"/>
<path d="M29.7229 21.8844C29.9752 19.9173 29.1154 18.6181 27.6943 17.6293C25.9628 16.4944 23.9138 15.9499 21.8506 16.0764C19.9571 16.0501 18.0986 16.5907 16.5115 17.6293C16.0011 17.9371 15.5581 18.3458 15.2094 18.8307C14.8607 19.3157 14.6136 19.8667 14.4829 20.4505C14.4261 20.8986 14.3969 21.3498 14.3954 21.8016C13.5207 21.2317 12.8821 20.3615 12.5985 19.3531C12.494 18.9144 12.4903 18.4576 12.5875 18.0172C12.6847 17.5768 12.8804 17.1645 13.1597 16.8115C13.9579 15.7749 15.0277 14.9826 16.2489 14.5235C18.7028 13.5033 21.3795 13.1464 24.0131 13.4882C25.794 13.6445 27.5186 14.1942 29.0639 15.0981C29.6873 15.4745 30.2556 15.9361 30.7526 16.4698C32.0192 17.8882 31.9832 19.5446 30.7063 20.9682C30.3974 21.2684 30.073 21.5324 29.7229 21.8844Z" fill="white"/>
<path d="M26.1189 23.0854C25.604 21.227 24.2139 20.6679 22.623 20.4971C21.6018 20.3638 20.5643 20.5442 19.647 21.0148C19.235 21.1999 18.8731 21.4818 18.5918 21.8367C18.3105 22.1916 18.1179 22.6091 18.0304 23.0543C17.6992 22.8989 17.4021 22.6789 17.1564 22.4069C16.9106 22.135 16.7212 21.8166 16.599 21.4703C16.5329 21.1632 16.5582 20.8433 16.6717 20.5506C16.7852 20.2578 16.982 20.0052 17.2375 19.8242C17.9985 19.1395 18.9347 18.6823 19.9405 18.5042C21.9443 18.0032 24.0598 18.2305 25.9129 19.1461C26.4003 19.4085 26.835 19.7595 27.195 20.1814C27.4427 20.4358 27.5815 20.7777 27.5815 21.1338C27.5815 21.4899 27.4427 21.8319 27.195 22.0863C26.8585 22.4428 26.4991 22.7765 26.1189 23.0854Z" fill="white"/>
<path d="M13.3297 33.5366C17.5721 36.0265 27.0199 35.9075 31.4374 33.1329C30.9637 34.3442 26.5256 36.6373 23.8432 36.9738C19.8221 37.4811 16.2695 36.4303 13.3297 33.5366Z" fill="white"/>
<path d="M20.2443 23.3235C20.7076 22.5056 23.2511 22.4124 23.8946 23.3235C23.457 24.1569 20.7797 24.2294 20.2443 23.3235Z" fill="white"/>
</g>
<defs>
<linearGradient id="paint0_linear_600_923" x1="11" y1="-6.16" x2="40.48" y2="47.96" gradientUnits="userSpaceOnUse">
<stop stop-color="#5BCDC2"/>
<stop offset="1" stop-color="#A1D947"/>
</linearGradient>
<clipPath id="clip0_600_923">
<rect width="31.9216" height="28.4706" fill="white" transform="translate(6.03918 8.62747)"/>
</clipPath>
</defs>
</svg>
