<svg width="18" height="18" viewBox="0 0 18 18" fill="none" xmlns="http://www.w3.org/2000/svg">
<circle cx="9" cy="9" r="9" fill="url(#paint0_linear_387_829)"/>
<g clip-path="url(#clip0_387_829)">
<path d="M4.29493 8.27078C3.93096 7.9595 3.6695 7.54451 3.5451 7.08066C3.47808 6.78613 3.48272 6.47969 3.55862 6.18735C3.63452 5.89501 3.77944 5.62539 3.98109 5.40137C4.48215 4.82126 5.12235 4.37952 5.84092 4.11807C6.77945 3.74113 7.77911 3.54155 8.78969 3.52937C9.98913 3.48195 11.1848 3.69278 12.2966 4.14772C12.9152 4.38744 13.4749 4.75874 13.9374 5.23619C14.1475 5.43703 14.3117 5.68137 14.4186 5.95231C14.5256 6.22326 14.5726 6.51432 14.5566 6.80537C14.5058 7.29628 14.286 7.75394 13.9353 8.09925C13.8847 8.15431 13.8384 8.2136 13.7752 8.28984C13.8104 8.04775 13.8315 7.80381 13.8384 7.55925C13.8237 7.24532 13.7455 6.93769 13.6087 6.65515C13.4718 6.37262 13.279 6.1211 13.0422 5.91596C12.3806 5.31261 11.5641 4.90766 10.6853 4.74701C9.21755 4.39571 7.67691 4.51948 6.28324 5.10066C5.60262 5.3594 5.0154 5.81843 4.59823 6.41784C4.42122 6.66786 4.30115 6.95401 4.24655 7.25596C4.19195 7.5579 4.20415 7.86823 4.28229 8.1649C4.28861 8.18819 4.28861 8.2136 4.29493 8.27078Z" fill="white"/>
<path d="M15.4498 7.00227C15.6096 7.67412 15.529 8.38107 15.2223 8.99921C14.7779 9.92886 14.0323 10.5345 13.1329 10.9665C12.3458 11.3291 11.5047 11.5588 10.6433 11.6463C9.66447 11.7656 8.67544 11.7748 7.69455 11.6738C6.40763 11.5404 5.17968 11.227 4.11391 10.4456C3.30935 9.90186 2.74371 9.06777 2.53421 8.11615C2.44676 7.72096 2.45109 7.31081 2.54685 6.91756C2.54685 6.89427 2.56159 6.86886 2.57002 6.84556C2.57844 6.82227 2.58476 6.83286 2.60161 6.81592C2.66094 7.5796 2.99843 8.29442 3.54943 8.82345C4.00287 9.28056 4.53531 9.65084 5.1207 9.91615C6.18058 10.4034 7.32596 10.6748 8.49072 10.7145C9.88956 10.8081 11.2918 10.5912 12.5979 10.0792C13.0711 9.88992 13.5184 9.64087 13.9291 9.33803C14.7063 8.73239 15.2876 8.01027 15.4498 7.00227Z" fill="white"/>
<path d="M2.72363 9.96069C3.00587 10.2826 3.26705 10.6214 3.56614 10.9179C4.36723 11.6677 5.36215 12.1755 6.43697 12.3833C7.75723 12.6614 9.11318 12.7257 10.4536 12.5739C11.316 12.5027 12.1618 12.2954 12.9601 11.9598C13.8477 11.5805 14.6138 10.962 15.1737 10.1725C15.1985 10.1366 15.2275 10.1039 15.2601 10.075C15.0306 10.7308 14.6724 11.3335 14.207 11.8475C13.4007 12.6923 12.3481 13.2575 11.2013 13.4612C9.57828 13.8159 7.89402 13.7716 6.29164 13.332C5.48392 13.1254 4.73928 12.7219 4.12357 12.1572C3.50786 11.5925 3.04006 10.8839 2.76155 10.0941C2.74597 10.0505 2.73331 10.006 2.72363 9.96069Z" fill="white"/>
<path d="M12.1598 8.95265C12.263 8.14794 11.9112 7.61641 11.3299 7.21194C10.6215 6.74766 9.78333 6.52491 8.93929 6.57665C8.16467 6.5659 7.40436 6.78704 6.7551 7.21194C6.54628 7.33783 6.36506 7.50503 6.22241 7.70341C6.07977 7.9018 5.97866 8.12723 5.92523 8.36606C5.90198 8.54938 5.89003 8.73396 5.88942 8.91876C5.5316 8.68564 5.27034 8.32963 5.15434 7.91712C5.11159 7.73765 5.11005 7.55076 5.14983 7.37061C5.18961 7.19046 5.26966 7.02177 5.38392 6.87735C5.71043 6.4533 6.14807 6.12916 6.64768 5.94135C7.65155 5.52401 8.74655 5.378 9.82392 5.51782C10.5525 5.58179 11.258 5.80667 11.8902 6.17641C12.1452 6.3304 12.3777 6.51927 12.581 6.73759C13.0992 7.31782 13.0844 7.99547 12.5621 8.57782C12.4357 8.70065 12.303 8.80865 12.1598 8.95265Z" fill="white"/>
<path d="M10.6856 9.44391C10.475 8.68368 9.90628 8.45497 9.25545 8.38509C8.83768 8.33054 8.41328 8.40437 8.03803 8.59685C7.86945 8.6726 7.7214 8.7879 7.60632 8.93308C7.49124 9.07827 7.41248 9.24909 7.37666 9.43121C7.24119 9.36765 7.11965 9.27762 7.01912 9.16637C6.91859 9.05512 6.84109 8.92487 6.79112 8.78321C6.76405 8.65758 6.77439 8.52672 6.82084 8.40696C6.86728 8.28719 6.94779 8.18384 7.0523 8.10979C7.36362 7.82968 7.74663 7.64265 8.15808 7.5698C8.97782 7.36483 9.84323 7.45784 10.6013 7.83238C10.8007 7.93973 10.9785 8.08334 11.1258 8.25591C11.2272 8.36 11.284 8.49988 11.284 8.64556C11.284 8.79124 11.2272 8.93112 11.1258 9.03521C10.9882 9.18103 10.8411 9.31757 10.6856 9.44391Z" fill="white"/>
<path d="M5.45312 13.7195C7.18868 14.7381 11.0537 14.6894 12.8608 13.5543C12.6671 14.0499 10.8515 14.988 9.75411 15.1256C8.10912 15.3331 6.6558 14.9033 5.45312 13.7195Z" fill="white"/>
<path d="M8.28223 9.54143C8.47179 9.20684 9.51228 9.16872 9.77557 9.54143C9.59653 9.88237 8.50128 9.91202 8.28223 9.54143Z" fill="white"/>
</g>
<defs>
<linearGradient id="paint0_linear_387_829" x1="4.5" y1="-2.52" x2="16.56" y2="19.62" gradientUnits="userSpaceOnUse">
<stop stop-color="#5BCDC2"/>
<stop offset="1" stop-color="#A1D947"/>
</linearGradient>
<clipPath id="clip0_387_829">
<rect width="13.0588" height="11.6471" fill="white" transform="translate(2.4707 3.52942)"/>
</clipPath>
</defs>
</svg>
