<svg width="100" height="100" viewBox="0 0 100 100" fill="none" xmlns="http://www.w3.org/2000/svg">
<circle cx="50" cy="50" r="50" fill="url(#paint0_linear_121_628)"/>
<path d="M50 43.25C50.9665 43.25 51.75 44.0335 51.75 45V45.7632C53.8452 46.4064 55.5 48.1771 55.5 50.5C55.5 51.3284 54.8284 52 54 52C53.1716 52 52.5 51.3284 52.5 50.5C52.5 49.5774 51.5752 48.5 50 48.5C48.4248 48.5 47.5 49.5774 47.5 50.5C47.5 51.4226 48.4248 52.5 50 52.5C52.8432 52.5 55.5 54.5566 55.5 57.5C55.5 59.8229 53.8452 61.5936 51.75 62.2368V63C51.75 63.9665 50.9665 64.75 50 64.75C49.0335 64.75 48.25 63.9665 48.25 63V62.2368C46.1548 61.5936 44.5 59.8229 44.5 57.5C44.5 56.6716 45.1716 56 46 56C46.8284 56 47.5 56.6716 47.5 57.5C47.5 58.4226 48.4248 59.5 50 59.5C51.5752 59.5 52.5 58.4226 52.5 57.5C52.5 56.5774 51.5752 55.5 50 55.5C47.1568 55.5 44.5 53.4434 44.5 50.5C44.5 48.1771 46.1548 46.4064 48.25 45.7632V45C48.25 44.0335 49.0335 43.25 50 43.25Z" fill="black"/>
<path d="M37.2649 47.2052C38.8983 42.3052 43.4839 39 48.6492 39H51.3508C56.516 39 61.1018 42.3052 62.735 47.2052L64.735 53.2052C67.3252 60.9756 61.5416 69 53.3508 69H46.6492C38.4584 69 32.6748 60.9756 35.2649 53.2052L37.2649 47.2052Z" stroke="black" stroke-width="3.5" stroke-linejoin="round"/>
<path d="M54.1718 39V40.5C54.6052 40.5 55.0176 40.3125 55.3024 39.9857L54.1718 39ZM45.8282 39L44.6976 39.9857C44.9825 40.3125 45.3948 40.5 45.8282 40.5V39ZM54.1718 37.5H45.8282V40.5H54.1718V37.5ZM46.9588 38.0143L44.1567 34.8002L41.8954 36.7716L44.6976 39.9857L46.9588 38.0143ZM55.8434 34.8002L53.0412 38.0143L55.3024 39.9857L58.1046 36.7716L55.8434 34.8002ZM47.0336 30.6473L48.8892 31.2458L49.8102 28.3907L47.9546 27.7921L47.0336 30.6473ZM51.1108 31.2458L52.9664 30.6473L52.0454 27.7921L50.1898 28.3907L51.1108 31.2458ZM48.8892 31.2458C49.611 31.4787 50.389 31.4787 51.1108 31.2458L50.1898 28.3907C50.0668 28.4304 49.9332 28.4304 49.8102 28.3907L48.8892 31.2458ZM58.1046 36.7716C61.922 32.393 57.3986 26.0652 52.0454 27.7921L52.9664 30.6473C55.634 29.7867 57.5196 32.8775 55.8434 34.8002L58.1046 36.7716ZM44.1567 34.8002C42.4804 32.8775 44.3661 29.7867 47.0336 30.6473L47.9546 27.7921C42.6013 26.0652 38.078 32.393 41.8954 36.7716L44.1567 34.8002Z" fill="black"/>
<defs>
<linearGradient id="paint0_linear_121_628" x1="50" y1="1.49012e-06" x2="9.16421e-07" y2="95" gradientUnits="userSpaceOnUse">
<stop stop-color="#B3EAEC"/>
<stop offset="1" stop-color="#FDF7C0"/>
</linearGradient>
</defs>
</svg>
