<svg width="100" height="100" viewBox="0 0 100 100" fill="none" xmlns="http://www.w3.org/2000/svg">
<circle cx="50" cy="50" r="50" fill="url(#paint0_linear_121_627)"/>
<path d="M48 40.75H52V37.25H48V40.75ZM54.25 43V63H57.75V43H54.25ZM52 65.25H48V68.75H52V65.25ZM45.75 63V43H42.25V63H45.75ZM48 65.25C46.7574 65.25 45.75 64.2426 45.75 63H42.25C42.25 66.1756 44.8244 68.75 48 68.75V65.25ZM54.25 63C54.25 64.2426 53.2426 65.25 52 65.25V68.75C55.1756 68.75 57.75 66.1756 57.75 63H54.25ZM52 40.75C53.2426 40.75 54.25 41.7574 54.25 43H57.75C57.75 39.8244 55.1756 37.25 52 37.25V40.75ZM48 37.25C44.8244 37.25 42.25 39.8244 42.25 43H45.75C45.75 41.7574 46.7574 40.75 48 40.75V37.25ZM60 52.75H64V49.25H60V52.75ZM66.25 55V63H69.75V55H66.25ZM64 65.25H60V68.75H64V65.25ZM57.75 63V55H54.25V63H57.75ZM60 65.25C58.7574 65.25 57.75 64.2426 57.75 63H54.25C54.25 66.1756 56.8244 68.75 60 68.75V65.25ZM66.25 63C66.25 64.2426 65.2426 65.25 64 65.25V68.75C67.1756 68.75 69.75 66.1756 69.75 63H66.25ZM64 52.75C65.2426 52.75 66.25 53.7574 66.25 55H69.75C69.75 51.8244 67.1756 49.25 64 49.25V52.75ZM60 49.25C56.8244 49.25 54.25 51.8244 54.25 55H57.75C57.75 53.7574 58.7574 52.75 60 52.75V49.25ZM36 48.75H40V45.25H36V48.75ZM42.25 51V63H45.75V51H42.25ZM40 65.25H36V68.75H40V65.25ZM33.75 63V51H30.25V63H33.75ZM36 65.25C34.7574 65.25 33.75 64.2426 33.75 63H30.25C30.25 66.1756 32.8244 68.75 36 68.75V65.25ZM42.25 63C42.25 64.2426 41.2426 65.25 40 65.25V68.75C43.1756 68.75 45.75 66.1756 45.75 63H42.25ZM40 48.75C41.2426 48.75 42.25 49.7574 42.25 51H45.75C45.75 47.8244 43.1756 45.25 40 45.25V48.75ZM36 45.25C32.8244 45.25 30.25 47.8244 30.25 51H33.75C33.75 49.7574 34.7574 48.75 36 48.75V45.25Z" fill="black"/>
<path d="M49.5245 25.4635C49.6741 25.0029 50.3259 25.0029 50.4755 25.4635L51.377 28.2381C51.444 28.4441 51.636 28.5836 51.8526 28.5836H54.7699C55.2543 28.5836 55.4557 29.2034 55.0638 29.4881L52.7036 31.2029C52.5284 31.3302 52.4551 31.5559 52.522 31.7619L53.4235 34.5365C53.5732 34.9971 53.0459 35.3802 52.6541 35.0955L50.2939 33.3807C50.1186 33.2534 49.8814 33.2534 49.7061 33.3807L47.3459 35.0955C46.9541 35.3802 46.4268 34.9971 46.5765 34.5365L47.478 31.7619C47.5449 31.5559 47.4716 31.3302 47.2964 31.2029L44.9362 29.4881C44.5443 29.2034 44.7457 28.5836 45.2301 28.5836H48.1474C48.364 28.5836 48.556 28.4441 48.623 28.2381L49.5245 25.4635Z" fill="black"/>
<defs>
<linearGradient id="paint0_linear_121_627" x1="50" y1="0" x2="50" y2="100" gradientUnits="userSpaceOnUse">
<stop stop-color="#C4F8F3"/>
<stop offset="1" stop-color="#B9D7F3"/>
</linearGradient>
</defs>
</svg>
