<svg width="20" height="20" viewBox="0 0 20 20" fill="none" xmlns="http://www.w3.org/2000/svg">
<path opacity="0.6" d="M10.2143 1.62791V1V1.62791ZM15.3571 1.62791V2.25581V1.62791ZM10.2143 17.7442H5.07143V19H10.2143V17.7442ZM2.28571 15.0233V10H1V15.0233H2.28571ZM5.07143 17.7442C3.53292 17.7442 2.28571 16.526 2.28571 15.0233H1C1 17.2196 2.82284 19 5.07143 19V17.7442ZM13 15.0233C13 16.526 11.7528 17.7442 10.2143 17.7442V19C12.4629 19 14.2857 17.2196 14.2857 15.0233H13ZM10.2143 7.27907C11.7528 7.27907 13 8.49729 13 10H14.2857C14.2857 7.80371 12.4629 6.02326 10.2143 6.02326V7.27907ZM5.07143 6.02326C2.82284 6.02326 1 7.80371 1 10H2.28571C2.28571 8.49729 3.53292 7.27907 5.07143 7.27907V6.02326ZM10.2143 2.25581H15.3571V1H10.2143V2.25581ZM18.1429 4.97674V10H19.4286V4.97674H18.1429ZM18.1429 10C18.1429 11.5027 16.8956 12.7209 15.3571 12.7209V13.9767C17.6058 13.9767 19.4286 12.1963 19.4286 10H18.1429ZM15.3571 2.25581C16.8956 2.25581 18.1429 3.47401 18.1429 4.97674H19.4286C19.4286 2.78045 17.6058 1 15.3571 1V2.25581ZM10.2143 1C7.9657 1 6.14286 2.78045 6.14286 4.97674H7.42857C7.42857 3.47401 8.6758 2.25581 10.2143 2.25581V1ZM7.42857 6.65116V4.97674H6.14286V6.65116H7.42857ZM5.07143 7.27907H6.78571V6.02326H5.07143V7.27907ZM6.78571 7.27907H10.2143V6.02326H6.78571V7.27907ZM15.3571 12.7209H13.6429V13.9767H15.3571V12.7209ZM13 10V13.3488H14.2857V10H13ZM13 13.3488V15.0233H14.2857V13.3488H13Z" fill="black" stroke="black"/>
</svg>
