<svg width="34" height="34" viewBox="0 0 34 34" fill="none" xmlns="http://www.w3.org/2000/svg">
<circle cx="17" cy="17" r="17" fill="url(#paint0_linear_2364_2797)"/>
<circle cx="17" cy="17" r="17" fill="url(#paint1_linear_2364_2797)"/>
<g clip-path="url(#clip0_2364_2797)">
<path d="M8.11166 15.6227C7.42418 15.0347 6.93031 14.2509 6.69532 13.3747C6.56873 12.8184 6.57749 12.2395 6.72086 11.6873C6.86423 11.1351 7.13797 10.6259 7.51887 10.2027C8.46531 9.10696 9.67457 8.27256 11.0319 7.77871C12.8047 7.06671 14.6929 6.68973 16.6018 6.66671C18.8674 6.57715 21.1259 6.97538 23.226 7.83471C24.3943 8.28752 25.4515 8.98886 26.3252 9.89071C26.7221 10.2701 27.0323 10.7316 27.2342 11.2434C27.4362 11.7552 27.5251 12.305 27.4949 12.8547C27.3989 13.782 26.9838 14.6465 26.3212 15.2987C26.2257 15.4027 26.1382 15.5147 26.0189 15.6587C26.0854 15.2014 26.1252 14.7407 26.1382 14.2787C26.1105 13.6857 25.9628 13.1047 25.7043 12.571C25.4457 12.0373 25.0816 11.5622 24.6343 11.1747C23.3846 10.0351 21.8424 9.27016 20.1824 8.96671C17.4099 8.30314 14.4998 8.53693 11.8674 9.63471C10.5818 10.1234 9.47256 10.9905 8.68456 12.1227C8.35022 12.595 8.12343 13.1355 8.02029 13.7058C7.91715 14.2762 7.94019 14.8623 8.08779 15.4227C8.09973 15.4667 8.09973 15.5147 8.11166 15.6227Z" fill="white"/>
<path d="M29.1822 13.2267C29.484 14.4957 29.3319 15.8311 28.7525 16.9987C27.9131 18.7547 26.5047 19.8987 24.8059 20.7147C23.3192 21.3996 21.7303 21.8334 20.1033 21.9987C18.2543 22.224 16.3862 22.2415 14.5334 22.0507C12.1025 21.7987 9.78308 21.2067 7.76996 19.7307C6.25024 18.7037 5.1818 17.1282 4.78609 15.3307C4.6209 14.5842 4.62907 13.8095 4.80996 13.0667C4.80996 13.0227 4.83781 12.9747 4.85372 12.9307C4.86964 12.8867 4.88157 12.9067 4.9134 12.8747C5.02546 14.3172 5.66294 15.6674 6.70372 16.6667C7.56022 17.5301 8.56594 18.2295 9.67168 18.7307C11.6737 19.6511 13.8372 20.1636 16.0373 20.2387C18.6795 20.4154 21.3281 20.0058 23.7953 19.0387C24.6891 18.6812 25.5341 18.2107 26.3097 17.6387C27.7778 16.4947 28.8759 15.1307 29.1822 13.2267Z" fill="white"/>
<path d="M5.14453 18.8147C5.67765 19.4227 6.17098 20.0627 6.73593 20.6227C8.24911 22.039 10.1284 22.9983 12.1586 23.3907C14.6524 23.916 17.2137 24.0375 19.7456 23.7507C21.3745 23.6162 22.9722 23.2248 24.48 22.5907C26.1567 21.8744 27.6037 20.706 28.6614 19.2147C28.7082 19.147 28.763 19.0852 28.8245 19.0307C28.3909 20.2693 27.7145 21.4078 26.8353 22.3787C25.3124 23.9745 23.3241 25.0419 21.158 25.4267C18.0922 26.0968 14.9108 26.0131 11.8841 25.1827C10.3584 24.7926 8.95186 24.0304 7.78886 22.9637C6.62585 21.8969 5.74223 20.5585 5.21614 19.0667C5.18673 18.9844 5.16281 18.9002 5.14453 18.8147Z" fill="white"/>
<path d="M22.9681 16.9107C23.1631 15.3907 22.4987 14.3867 21.4006 13.6227C20.0625 12.7457 18.4793 12.325 16.885 12.4227C15.4218 12.4024 13.9857 12.8201 12.7593 13.6227C12.3649 13.8605 12.0226 14.1763 11.7531 14.551C11.4837 14.9257 11.2927 15.3516 11.1918 15.8027C11.1479 16.149 11.1253 16.4976 11.1241 16.8467C10.4483 16.4063 9.95475 15.7339 9.73564 14.9547C9.6549 14.6157 9.65199 14.2627 9.72713 13.9224C9.80226 13.5821 9.95348 13.2635 10.1693 12.9907C10.786 12.1897 11.6127 11.5774 12.5564 11.2227C14.4526 10.4344 16.5209 10.1586 18.556 10.4227C19.9321 10.5435 21.2648 10.9683 22.4589 11.6667C22.9406 11.9576 23.3798 12.3143 23.7638 12.7267C24.7425 13.8227 24.7147 15.1027 23.728 16.2027C23.4893 16.4347 23.2387 16.6387 22.9681 16.9107Z" fill="white"/>
<path d="M20.1829 17.8387C19.7851 16.4027 18.7109 15.9707 17.4815 15.8387C16.6924 15.7357 15.8908 15.8751 15.182 16.2387C14.8635 16.3818 14.5839 16.5996 14.3665 16.8738C14.1491 17.1481 14.0004 17.4707 13.9327 17.8147C13.6768 17.6947 13.4472 17.5246 13.2574 17.3145C13.0675 17.1043 12.9211 16.8583 12.8267 16.5907C12.7756 16.3534 12.7951 16.1062 12.8828 15.88C12.9706 15.6538 13.1226 15.4586 13.32 15.3187C13.9081 14.7896 14.6315 14.4363 15.4087 14.2987C16.9571 13.9116 18.5918 14.0873 20.0238 14.7947C20.4004 14.9975 20.7363 15.2687 21.0144 15.5947C21.2059 15.7913 21.3132 16.0556 21.3132 16.3307C21.3132 16.6059 21.2059 16.8701 21.0144 17.0667C20.7545 17.3422 20.4767 17.6001 20.1829 17.8387Z" fill="white"/>
<path d="M10.2998 25.9147C13.5781 27.8387 20.8786 27.7467 24.2922 25.6027C23.9261 26.5387 20.4967 28.3107 18.4239 28.5707C15.3167 28.9627 12.5715 28.1507 10.2998 25.9147Z" fill="white"/>
<path d="M15.6436 18.0227C16.0016 17.3907 17.967 17.3187 18.4643 18.0227C18.1261 18.6667 16.0573 18.7227 15.6436 18.0227Z" fill="white"/>
</g>
<defs>
<linearGradient id="paint0_linear_2364_2797" x1="8.5" y1="-4.76" x2="31.28" y2="37.06" gradientUnits="userSpaceOnUse">
<stop stop-color="#67D0C6"/>
<stop offset="1" stop-color="#BAE96F"/>
</linearGradient>
<linearGradient id="paint1_linear_2364_2797" x1="8.5" y1="-4.76" x2="31.28" y2="37.06" gradientUnits="userSpaceOnUse">
<stop stop-color="#5BCDC2"/>
<stop offset="1" stop-color="#A1D947"/>
</linearGradient>
<clipPath id="clip0_2364_2797">
<rect width="24.6667" height="22" fill="white" transform="translate(4.66699 6.66669)"/>
</clipPath>
</defs>
</svg>
