<svg width="34" height="34" viewBox="0 0 34 34" fill="none" xmlns="http://www.w3.org/2000/svg">
<circle cx="17" cy="17" r="17" fill="url(#paint0_linear_2364_2840)"/>
<circle cx="7.57484" cy="15.9631" r="1.82386" fill="white"/>
<circle cx="13.1422" cy="8.28379" r="1.82386" fill="white"/>
<circle cx="11.4147" cy="24.6026" r="1.82386" fill="white"/>
<circle cx="21.0133" cy="25.5623" r="1.82386" fill="white"/>
<circle cx="26.5817" cy="17.8832" r="1.82386" fill="white"/>
<circle cx="22.5494" cy="9.24357" r="1.82386" fill="white"/>
<path fill-rule="evenodd" clip-rule="evenodd" d="M15.2989 12.7847C15.8432 12.5447 16.4451 12.4115 17.0781 12.4115C17.6561 12.4115 18.2082 12.5226 18.7141 12.7245C19.0119 12.3482 19.1896 11.8726 19.1896 11.3555C19.1896 10.1362 18.2012 9.14767 16.9818 9.14767C15.7625 9.14767 14.774 10.1362 14.774 11.3555C14.774 11.9006 14.9715 12.3995 15.2989 12.7847ZM14.2433 13.4416C13.9244 12.6144 13.122 12.0276 12.1824 12.0276C10.9631 12.0276 9.97461 13.0161 9.97461 14.2354C9.97461 15.4548 10.9631 16.4432 12.1824 16.4432C12.355 16.4432 12.523 16.4234 12.6842 16.386C12.8013 15.2061 13.3828 14.1628 14.2433 13.4416ZM12.7422 17.6667C12.5634 17.62 12.3758 17.5951 12.1824 17.5951C10.9631 17.5951 9.97461 18.5836 9.97461 19.803C9.97461 21.0223 10.9631 22.0108 12.1824 22.0108C13.2348 22.0108 14.1152 21.2745 14.3366 20.2889C13.5254 19.6456 12.9455 18.7232 12.7422 17.6667ZM15.4266 20.9236C15.0235 21.3236 14.774 21.878 14.774 22.4907C14.774 23.7101 15.7625 24.6986 16.9818 24.6986C18.2012 24.6986 19.1896 23.7101 19.1896 22.4907C19.1896 21.9051 18.9616 21.3726 18.5895 20.9774C18.118 21.1492 17.609 21.2429 17.0781 21.2429C16.4942 21.2429 15.9368 21.1295 15.4266 20.9236ZM19.6588 20.4107C19.9227 21.3345 20.7733 22.0108 21.7819 22.0108C23.0013 22.0108 23.9898 21.0223 23.9898 19.803C23.9898 18.5836 23.0013 17.5951 21.7819 17.5951C21.6594 17.5951 21.5392 17.6051 21.422 17.6243C21.2137 18.7673 20.5652 19.7567 19.6588 20.4107ZM21.4755 16.4221C21.5756 16.4361 21.6779 16.4432 21.7819 16.4432C23.0013 16.4432 23.9898 15.4548 23.9898 14.2354C23.9898 13.0161 23.0013 12.0276 21.7819 12.0276C20.8867 12.0276 20.1159 12.5604 19.7694 13.3262C20.7176 14.0562 21.3609 15.1628 21.4755 16.4221Z" fill="white"/>
<circle cx="4.98297" cy="19.3228" r="1.15191" fill="white"/>
<circle cx="9.01519" cy="7.80371" r="1.15191" fill="white"/>
<circle cx="21.1099" cy="5.3081" r="1.15191" fill="white"/>
<circle cx="28.981" cy="14.7153" r="1.15191" fill="white"/>
<circle cx="25.1421" cy="26.2345" r="1.15191" fill="white"/>
<circle cx="13.2388" cy="28.5383" r="1.15191" fill="white"/>
<defs>
<linearGradient id="paint0_linear_2364_2840" x1="8.5" y1="-4.76" x2="31.28" y2="37.06" gradientUnits="userSpaceOnUse">
<stop stop-color="#5BCDC2"/>
<stop offset="1" stop-color="#A1D947"/>
</linearGradient>
</defs>
</svg>
